<?xml version="1.0" encoding="UTF-8" standalone="no"?>
<svg width="430px" height="422px" viewBox="0 0 430 422" version="1.1" xmlns="http://www.w3.org/2000/svg" xmlns:xlink="http://www.w3.org/1999/xlink">
    <!-- Generator: Sketch 3.8.1 (29687) - http://www.bohemiancoding.com/sketch -->
    <title>23957</title>
    <desc>Created with Sketch.</desc>
    <defs></defs>
    <g id="Page-1" stroke="none" stroke-width="1" fill="none" fill-rule="evenodd">
        <g id="23957" fill="#000000">
            <path d="M367.027,367.027 C347.267,386.786 324.271,402.294 298.673,413.121 C292.171,415.871 285.568,418.285 278.872,420.367 L278.872,382 C278.872,361.833 271.956,347 258.122,337.5 C266.79,336.667 274.747,335.5 281.997,334 C289.247,332.5 296.915,330.333 304.997,327.5 C313.081,324.667 320.331,321.292 326.747,317.375 C333.165,313.458 339.331,308.375 345.247,302.125 C351.165,295.875 356.122,288.792 360.122,280.875 C364.122,272.958 367.29,263.458 369.622,252.375 C371.956,241.292 373.122,229.083 373.122,215.75 C373.122,189.917 364.706,167.917 347.872,149.75 C355.54,129.75 354.706,108 345.372,84.5 L339.122,83.75 C334.79,83.25 326.997,85.083 315.747,89.25 C304.497,93.417 291.872,100.25 277.872,109.75 C258.04,104.25 237.456,101.5 216.123,101.5 C194.623,101.5 174.123,104.25 154.623,109.75 C145.79,103.75 137.415,98.792 129.498,94.875 C121.581,90.958 115.248,88.292 110.498,86.875 C105.748,85.458 101.331,84.583 97.248,84.25 C93.165,83.917 90.54,83.833 89.373,84 C88.206,84.167 87.373,84.333 86.873,84.5 C77.54,108.167 76.706,129.917 84.373,149.75 C67.54,167.917 59.123,189.917 59.123,215.75 C59.123,229.083 60.29,241.292 62.623,252.375 C64.956,263.458 68.123,272.958 72.123,280.875 C76.123,288.792 81.081,295.875 86.998,302.125 C92.915,308.375 99.081,313.458 105.498,317.375 C111.915,321.292 119.165,324.667 127.248,327.5 C135.331,330.333 142.998,332.5 150.248,334 C157.498,335.5 165.456,336.667 174.123,337.5 C160.456,346.833 153.623,361.667 153.623,382 L153.623,421.115 C146.074,418.868 138.633,416.213 131.323,413.121 C105.726,402.294 82.729,386.786 62.97,367.027 C43.212,347.269 27.703,324.271 16.877,298.673 C5.679,272.195 0,244.043 0,215 C0,185.957 5.679,157.805 16.879,131.325 C27.706,105.728 43.214,82.731 62.972,62.972 C82.73,43.213 105.728,27.705 131.325,16.879 C157.805,5.679 185.957,0 215,0 C244.043,0 272.195,5.679 298.676,16.879 C324.274,27.706 347.27,43.214 367.03,62.972 C386.788,82.73 402.296,105.728 413.122,131.325 C424.32,157.805 430,185.957 430,215 C430,244.043 424.32,272.195 413.121,298.675 C402.295,324.271 386.785,347.27 367.027,367.027 L367.027,367.027 Z" id="Shape"></path>
        </g>
    </g>
</svg>