
<svg viewBox="0 0 306 364" version="1.1" xmlns="http://www.w3.org/2000/svg" xmlns:xlink="http://www.w3.org/1999/xlink">
    <!-- Generator: Sketch 3.8.1 (29687) - http://www.bohemiancoding.com/sketch -->
    <desc>Created with Sketch.</desc>
    <defs></defs>
    <path d="M232.294,213.121 C257.997,204.142 270.849,187.213 270.849,162.324 C270.849,149.268 268.708,138.966 264.423,131.418 C260.14,123.87 253.306,117.648 243.921,112.752 C239.433,110.304 234.13,108.876 228.009,108.468 C221.89,108.06 215.364,107.958 208.425,108.162 C201.489,108.366 194.148,108.774 186.394,109.386 C178.642,109.998 170.89,110.304 163.14,110.304 C155.388,110.304 147.636,109.998 139.884,109.386 C132.132,108.774 124.788,108.366 117.852,108.162 C110.916,107.958 104.388,108.06 98.268,108.468 C92.148,108.876 86.844,110.304 82.356,112.752 C72.972,117.648 66.24,123.87 62.16,131.418 C58.08,138.966 56.04,149.268 56.04,162.324 C56.04,187.213 68.892,204.144 94.596,213.121 C99.084,214.344 103.98,215.566 109.284,216.793 C113.772,217.606 119.382,218.424 126.114,219.238 C132.846,220.054 140.7,220.465 149.676,220.465 L176.603,220.465 C185.171,220.465 192.923,220.057 199.863,219.238 C206.799,218.424 212.715,217.605 217.611,216.793 C223.318,215.568 228.214,214.344 232.294,213.121 L232.294,213.121 Z M305.734,124.38 C305.734,137.436 304.304,149.778 301.451,161.406 C298.594,173.031 293.291,183.541 285.539,192.924 C277.787,202.309 267.076,210.061 253.408,216.18 C239.74,222.301 222.299,226.176 201.082,227.809 C204.346,229.44 208.529,231.481 213.629,233.928 C218.729,236.377 223.115,241.069 226.787,248.004 C228.826,252.49 230.152,259.02 230.764,267.588 C231.377,276.154 231.682,284.928 231.682,293.902 C231.682,302.881 231.58,311.14 231.377,318.687 C231.172,326.236 231.479,330.828 232.295,332.458 C233.926,335.722 236.274,338.577 239.332,341.024 C242.393,343.471 244.943,345.307 246.982,346.532 C249.021,347.759 249.632,349.288 248.818,351.124 C248.002,352.96 245.146,354.083 240.25,354.487 C237.803,354.487 234.742,354.083 231.07,353.264 C227.398,352.448 223.927,351.02 220.666,348.979 C217.404,346.94 214.648,344.389 212.404,341.333 C210.16,338.27 209.039,334.294 209.039,329.395 L209.039,279.211 C209.039,273.5 207.713,269.42 205.059,266.971 C202.411,264.524 199.657,262.891 196.797,262.076 L196.797,328.172 C196.797,340.004 198.225,347.756 201.082,351.428 C202.305,353.061 203.428,354.795 204.447,356.631 C205.466,358.467 206.08,359.996 206.283,361.221 C206.488,362.444 205.773,363.159 204.138,363.364 C202.507,363.567 199.449,363.057 194.958,361.835 C186.39,359.796 180.27,355.103 176.599,347.759 C172.928,340.415 171.091,332.663 171.091,324.503 L171.091,259.632 L157.63,259.632 L157.63,324.503 C157.63,332.663 155.896,340.415 152.428,347.759 C148.96,355.103 142.738,359.796 133.762,361.835 C129.274,363.06 126.316,363.567 124.888,363.364 C123.46,363.161 122.746,362.444 122.746,361.221 C122.746,359.996 123.358,358.467 124.582,356.631 C125.806,354.795 127.03,353.061 128.254,351.428 C129.07,349.797 129.988,346.94 131.008,342.86 C132.028,338.782 132.538,333.885 132.538,328.172 L132.538,262.076 C129.682,262.89 127.03,264.521 124.582,266.972 C122.134,269.419 120.91,273.499 120.91,279.212 L120.91,329.396 C120.91,334.292 119.788,338.269 117.544,341.332 C115.3,344.393 112.546,346.939 109.282,348.98 C106.018,351.019 102.55,352.451 98.878,353.263 C95.206,354.079 92.146,354.488 89.698,354.488 C84.802,354.082 81.946,352.961 81.13,351.125 C80.314,349.289 80.926,347.758 82.966,346.535 C85.006,345.308 87.556,343.472 90.616,341.023 C93.676,338.578 96.022,335.72 97.654,332.459 C98.47,330.418 98.776,325.012 98.572,316.238 C98.368,307.467 98.266,297.775 98.266,287.17 C95.002,288.395 90.718,289.211 85.414,289.619 C80.11,290.023 74.194,289.619 67.666,288.392 C56.65,286.351 48.286,282.785 42.574,277.681 C36.862,272.581 31.354,264.523 26.05,253.507 C23.194,248.204 20.032,243.818 16.564,240.349 C13.096,236.882 10.036,234.128 7.384,232.087 C4.732,230.048 2.692,228.314 1.264,226.886 C-0.164,225.458 -0.266,224.132 0.958,222.907 C3.406,220.052 6.772,218.827 11.056,219.233 C15.34,219.641 17.89,220.254 18.706,221.069 C23.602,223.108 28.498,227.393 33.394,233.923 C38.29,240.454 43.39,245.96 48.694,250.446 C51.142,252.485 54.202,254.524 57.874,256.565 C61.546,258.604 65.626,260.036 70.114,260.848 C74.602,261.664 79.498,261.664 84.802,260.848 C90.106,260.035 95.41,257.789 100.714,254.119 C101.938,248.812 103.876,244.633 106.528,241.57 C109.18,238.509 112.036,236.062 115.096,234.226 C118.156,232.39 121.012,230.962 123.664,229.941 C126.316,228.921 128.458,228.003 130.09,227.187 C107.65,225.556 89.29,221.785 75.01,215.869 C60.73,209.953 49.408,202.402 41.044,193.223 C32.68,184.043 26.968,173.537 23.908,161.704 C20.848,149.872 19.318,137.428 19.318,124.372 C19.318,110.908 21.358,98.872 25.438,88.264 C29.518,77.656 35.23,68.272 42.574,60.112 C39.31,50.32 38.188,40.018 39.208,29.206 C40.228,18.394 42.37,8.704 45.634,0.136 C61.138,0.952 74.092,4.216 84.496,9.928 C94.9,15.64 102.142,20.332 106.222,24.004 C123.766,19.108 141.922,16.66 160.69,16.66 L164.974,16.66 C182.517,16.66 199.453,18.7 215.769,22.78 C220.257,19.108 227.601,14.62 237.802,9.316 C248.001,4.012 260.652,0.952 275.745,0.136 C279.009,8.296 281.151,17.476 282.171,27.676 C283.192,37.876 282.478,47.668 280.03,57.052 C288.19,65.212 294.51,74.902 299.001,86.122 C303.49,97.35 305.734,110.1 305.734,124.38 L305.734,124.38 Z M162.526,110.304 L163.138,110.304 L163.75,110.304 L162.526,110.304 L162.526,110.304 Z M241.474,158.04 C241.474,163.752 239.947,168.648 236.884,172.728 C233.823,176.808 230.05,178.847 225.562,178.847 C221.076,178.847 217.404,176.808 214.546,172.728 C211.692,168.647 210.261,163.751 210.261,158.04 C210.261,152.329 211.693,147.432 214.546,143.352 C217.401,139.272 221.073,137.232 225.562,137.232 C230.051,137.232 233.826,139.272 236.884,143.352 C239.945,147.432 241.474,152.328 241.474,158.04 L241.474,158.04 Z M121.522,158.04 C121.522,163.752 119.992,168.648 116.932,172.728 C113.872,176.808 110.098,178.847 105.61,178.847 C101.122,178.847 97.45,176.808 94.594,172.728 C91.738,168.647 90.31,163.751 90.31,158.04 C90.31,152.329 91.738,147.432 94.594,143.352 C97.45,139.272 101.122,137.232 105.61,137.232 C110.098,137.232 113.872,139.272 116.932,143.352 C119.993,147.432 121.522,152.328 121.522,158.04 L121.522,158.04 Z" id="Shape" stroke="none" fill="#010002" fill-rule="evenodd"></path>
</svg>